<?xml version="1.0" encoding="utf-8"?>
<!-- Generator: Adobe Illustrator 27.5.0, SVG Export Plug-In . SVG Version: 6.00 Build 0)  -->
<svg version="1.1" xmlns="http://www.w3.org/2000/svg" xmlns:xlink="http://www.w3.org/1999/xlink" x="0px" y="0px"
	 viewBox="0 0 500 500" style="enable-background:new 0 0 500 500;" xml:space="preserve">
<g id="BACKGROUND">
	<g>
		<defs>
			<rect id="SVGID_1_" width="500.922" height="500.922"/>
		</defs>
		<clipPath id="SVGID_00000107582858298217213780000017559721179878159523_">
			<use xlink:href="#SVGID_1_"  style="overflow:visible;"/>
		</clipPath>
		
			<rect style="clip-path:url(#SVGID_00000107582858298217213780000017559721179878159523_);fill:#6B2797;" width="500.922" height="500.922"/>
		<g style="clip-path:url(#SVGID_00000107582858298217213780000017559721179878159523_);">
			<g>
				<g>
					<path style="fill:#301B69;" d="M245.938,295.309l133.39-285.091c9.474-20.249,33.948-28.472,53.727-18.052l0,0
						c20.531,10.817,27.207,37.013,14.356,56.336L262.728,326.197L245.938,295.309z"/>
					<path style="fill:#34134A;" d="M283.216,186.876l63.197-308.344c4.489-21.9,26.368-35.606,48.032-30.088h0
						c22.488,5.728,35.091,29.644,27.103,51.433L306.749,212.994L283.216,186.876z"/>
					<path style="fill:#3A217F;" d="M261.085,307.927L137.422,18.485c-8.783-20.558,1.395-44.285,22.345-52.087h0
						c21.747-8.099,45.728,4.381,51.57,26.84l83.966,322.756L261.085,307.927z"/>
					<path style="fill:#34134A;" d="M205.083,207.872L17.304-44.732C3.967-62.673,8.329-88.12,26.881-100.595h0
						c19.257-12.95,45.488-6.408,56.409,14.068l156.95,294.259L205.083,207.872z"/>
					<path style="fill:#301B69;" d="M145.741,208.465L-73.805-17.077c-15.593-16.019-14.636-41.82,2.102-56.639h0
						c17.375-15.383,44.24-12.369,57.774,6.482l194.497,270.91L145.741,208.465z"/>
					<path style="fill:#34134A;" d="M238.214,320.612l-260.69-176.381c-18.516-12.527-22.806-37.987-9.417-55.89l0,0
						c13.898-18.585,40.816-21.076,57.889-5.358l245.354,225.882L238.214,320.612z"/>
				</g>
				<g>
					<path style="fill:#46289A;" d="M239.663,299.092L440.4,131.827c14.257-11.88,35.55-9.435,46.744,5.368h0
						c11.619,15.366,7.404,37.409-9.065,47.403L241.397,328.225L239.663,299.092z"/>
					<path style="fill:#57207B;" d="M305.899,230.731L462.072,21.249C473.164,6.37,494.44,3.78,508.778,15.563h0
						c14.884,12.231,15.927,34.649,2.244,48.21L314.381,258.656L305.899,230.731z"/>
					<path style="fill:#502EB0;" d="M246.601,313.915l9.065-261.133c0.644-18.547,16.657-32.793,35.153-31.274h0
						c19.2,1.577,32.825,19.41,29.301,38.349l-50.643,272.181L246.601,313.915z"/>
					<path style="fill:#57207B;" d="M239.773,218.974L187.665-37.068c-3.701-18.185,8.546-35.774,26.886-38.612h0
						c19.038-2.946,36.448,11.216,37.44,30.455l14.256,276.485L239.773,218.974z"/>
					<path style="fill:#46289A;" d="M194.961,198.505L109.439-48.393c-6.074-17.536,3.739-36.591,21.542-41.83h0
						c18.481-5.439,37.611,6.295,41.139,25.234l50.706,272.169L194.961,198.505z"/>
					<path style="fill:#57207B;" d="M224.94,315.388L91.166,90.939c-9.501-15.942-3.753-36.589,12.62-45.327l0,0
						c16.996-9.07,38.106-1.456,45.399,16.375l104.8,256.25L224.94,315.388z"/>
				</g>
			</g>
			<g>
				<g>
					<path style="fill:#301B69;" d="M193.627,405.63l-32.674-256.419c-2.321-18.212,11.049-34.669,29.351-36.127h0
						c18.998-1.513,35.138,13.732,34.709,32.786l-6.167,273.818L193.627,405.63z"/>
					<path style="fill:#34134A;" d="M171.863,314.013L80.267,72.293c-6.506-17.168,2.656-36.29,20.112-41.978h0
						c18.121-5.904,37.372,5.155,41.4,23.783l57.886,267.7L171.863,314.013z"/>
					<path style="fill:#3A217F;" d="M209.681,407.732L-3.274,261.21c-15.125-10.407-18.485-31.342-7.375-45.959l0,0
						c11.532-15.173,33.655-17.047,47.575-4.029l200.043,187.075L209.681,407.732z"/>
					<path style="fill:#34134A;" d="M126.87,362.904l-241.262-92.795c-17.136-6.591-25.287-26.165-17.894-42.97h0
						c7.674-17.445,28.749-24.428,45.322-15.017l238.168,135.242L126.87,362.904z"/>
					<path style="fill:#301B69;" d="M85.953,389.383l-251.418-60.063c-17.857-4.266-28.526-22.59-23.421-40.225v0
						c5.299-18.307,25.265-28.017,42.937-20.881l253.965,102.547L85.953,389.383z"/>
					<path style="fill:#34134A;" d="M199.383,426.58l-258.372-7.876c-18.351-0.559-32.511-16.341-31.086-34.645v0
						c1.48-19.001,19.064-32.555,37.815-29.148l269.475,48.962L199.383,426.58z"/>
				</g>
				<g>
					<path style="fill:#46289A;" d="M190.935,411.011l65.816-204.244c4.675-14.507,20.524-22.163,34.793-16.809h0
						c14.813,5.558,21.57,22.705,14.532,36.875L204.936,430.465L190.935,411.011z"/>
					<path style="fill:#57207B;" d="M206.867,334.48l16.348-213.962c1.161-15.197,14.787-26.34,29.912-24.462l0,0
						c15.701,1.949,26.272,17.046,22.734,32.467L225.02,350.131L206.867,334.48z"/>
					<path style="fill:#502EB0;" d="M202.261,418.249L93.842,233.067c-7.701-13.153-2.847-30.072,10.655-37.143h0
						c14.016-7.34,31.303-0.951,37.178,13.739l84.421,211.112L202.261,418.249z"/>
					<path style="fill:#57207B;" d="M155.818,355.369L7.187,200.592c-10.557-10.993-9.784-28.578,1.695-38.604l0,0
						c11.916-10.407,30.218-8.228,39.357,4.686l131.345,185.59L155.818,355.369z"/>
					<path style="fill:#46289A;" d="M115.732,360.851l-167.8-133.755c-11.918-9.5-13.479-27.033-3.427-38.489v0
						c10.435-11.892,28.864-12.153,39.631-0.562L138.878,354.63L115.732,360.851z"/>
					<path style="fill:#57207B;" d="M187.877,428.786l-191.42-96.981c-13.596-6.888-18.677-23.741-11.154-36.996v0
						c7.809-13.76,25.802-17.749,38.695-8.58l185.285,131.775L187.877,428.786z"/>
				</g>
			</g>
			<g>
				<g>
					<path style="fill:#301B69;" d="M307.871,363.866l256.419-32.674c18.212-2.321,34.669,11.049,36.127,29.351v0
						c1.513,18.998-13.732,35.138-32.786,34.709l-273.818-6.167L307.871,363.866z"/>
					<path style="fill:#34134A;" d="M399.487,342.102l241.72-91.596c17.168-6.506,36.29,2.656,41.978,20.113v0
						c5.904,18.121-5.155,37.372-23.783,41.4l-267.7,57.886L399.487,342.102z"/>
					<path style="fill:#3A217F;" d="M305.769,379.92L452.29,166.965c10.407-15.125,31.342-18.485,45.959-7.375l0,0
						c15.173,11.532,17.047,33.655,4.029,47.575L315.203,407.207L305.769,379.92z"/>
					<path style="fill:#34134A;" d="M350.597,297.108l92.795-241.262c6.591-17.136,26.165-25.287,42.97-17.894l0,0
						c17.445,7.674,24.428,28.749,15.017,45.322L366.137,321.441L350.597,297.108z"/>
					<path style="fill:#301B69;" d="M324.117,256.191L384.18,4.774c4.266-17.857,22.59-28.526,40.225-23.421h0
						c18.307,5.299,28.017,25.265,20.881,42.937L342.74,278.254L324.117,256.191z"/>
					<path style="fill:#34134A;" d="M286.92,369.621l7.876-258.372c0.559-18.351,16.341-32.511,34.645-31.086l0,0
						c19.001,1.48,32.555,19.064,29.148,37.815l-48.962,269.475L286.92,369.621z"/>
				</g>
				<g>
					<path style="fill:#46289A;" d="M302.49,361.174l204.244,65.816c14.507,4.675,22.163,20.524,16.809,34.793v0
						c-5.558,14.813-22.705,21.57-36.875,14.532L283.036,375.174L302.49,361.174z"/>
					<path style="fill:#57207B;" d="M379.02,377.105l213.962,16.348c15.197,1.161,26.34,14.787,24.462,29.912l0,0
						c-1.949,15.701-17.046,26.272-32.467,22.734L363.37,395.258L379.02,377.105z"/>
					<path style="fill:#502EB0;" d="M295.251,372.499L480.434,264.08c13.153-7.701,30.072-2.847,37.143,10.655v0
						c7.34,14.016,0.951,31.303-13.739,37.178l-211.112,84.421L295.251,372.499z"/>
					<path style="fill:#57207B;" d="M358.131,326.057l154.777-148.631c10.993-10.557,28.578-9.785,38.604,1.695h0
						c10.407,11.916,8.228,30.218-4.686,39.357l-185.59,131.345L358.131,326.057z"/>
					<path style="fill:#46289A;" d="M352.65,285.97l133.755-167.8c9.5-11.918,27.033-13.479,38.488-3.427h0
						c11.892,10.435,12.153,28.864,0.562,39.631L358.871,309.117L352.65,285.97z"/>
					<path style="fill:#57207B;" d="M284.714,358.116l96.981-191.42c6.888-13.596,23.741-18.677,36.996-11.154l0,0
						c13.76,7.809,17.749,25.803,8.58,38.695L295.496,379.522L284.714,358.116z"/>
				</g>
			</g>
		</g>
		<g style="clip-path:url(#SVGID_00000107582858298217213780000017559721179878159523_);">
			<g>
				<g>
					<path style="fill:#452797;" d="M246.334,411.504l94.755-202.516c6.73-14.384,24.115-20.225,38.165-12.823h0
						c14.585,7.684,19.327,26.293,10.198,40.019L258.261,433.445L246.334,411.504z"/>
					<path style="fill:#551F78;" d="M272.815,334.478l44.892-219.034c3.188-15.557,18.731-25.293,34.12-21.373h0
						c15.975,4.069,24.928,21.058,19.253,36.535l-81.548,222.425L272.815,334.478z"/>
					<path style="fill:#4F2DAD;" d="M257.095,420.468L169.25,214.86c-6.239-14.603,0.991-31.458,15.873-37.001h0
						c15.448-5.753,32.483,3.112,36.633,19.066l59.646,229.271L257.095,420.468z"/>
					<path style="fill:#551F78;" d="M217.313,349.393L83.923,169.954c-9.474-12.745-6.375-30.821,6.803-39.683h0
						c13.679-9.199,32.313-4.552,40.07,9.993l111.49,209.029L217.313,349.393z"/>
					<path style="fill:#452797;" d="M175.159,349.814L19.204,189.599c-11.077-11.379-10.397-29.707,1.493-40.234v0
						c12.342-10.928,31.426-8.786,41.04,4.605l138.162,192.443L175.159,349.814z"/>
					<path style="fill:#551F78;" d="M240.848,429.478L55.665,304.185c-13.153-8.899-16.2-26.984-6.69-39.702l0,0
						c9.872-13.202,28.994-14.972,41.122-3.806l174.289,160.457L240.848,429.478z"/>
				</g>
				<g>
					<path style="fill:#5B34C8;" d="M241.877,414.191l142.594-118.818c10.128-8.439,25.253-6.702,33.205,3.813l0,0
						c8.254,10.915,5.259,26.573-6.44,33.673L243.109,434.886L241.877,414.191z"/>
					<path style="fill:#782CA9;" d="M288.928,365.631l110.939-148.807c7.879-10.569,22.993-12.409,33.178-4.039v0
						c10.573,8.688,11.314,24.613,1.594,34.246L294.954,385.467L288.928,365.631z"/>
					<path style="fill:#653ADE;" d="M228.236,505.03l25.009-265.807c0.457-13.175,11.832-23.295,24.971-22.216l0,0
						c13.639,1.12,23.318,13.788,20.814,27.241l-54.544,273.655L228.236,505.03z"/>
					<path style="fill:#782CA9;" d="M241.956,357.279L204.94,175.398c-2.629-12.918,6.071-25.413,19.099-27.429l0,0
						c13.524-2.093,25.891,7.967,26.596,21.634l10.126,196.403L241.956,357.279z"/>
					<path style="fill:#5B34C8;" d="M210.123,342.739l-60.751-175.386c-4.315-12.457,2.656-25.992,15.303-29.714l0,0
						c13.128-3.863,26.717,4.472,29.224,17.925l36.019,193.337L210.123,342.739z"/>
					<path style="fill:#782CA9;" d="M231.419,425.767l-95.027-159.439c-6.749-11.324-2.666-25.991,8.965-32.198h0
						c12.073-6.443,27.069-1.034,32.249,11.632l74.446,182.029L231.419,425.767z"/>
				</g>
			</g>
			<g>
				<g>
					<path style="fill:#452797;" d="M209.176,489.871l-23.21-182.149c-1.648-12.937,7.849-24.627,20.85-25.663l0,0
						c13.495-1.075,24.96,9.755,24.656,23.289l-4.381,194.508L209.176,489.871z"/>
					<path style="fill:#551F78;" d="M193.715,424.791L128.65,253.084c-4.621-12.196,1.887-25.779,14.287-29.819l0,0
						c12.872-4.194,26.547,3.662,29.409,16.895l41.119,190.162L193.715,424.791z"/>
					<path style="fill:#4F2DAD;" d="M220.58,491.365L69.306,387.282c-10.744-7.393-13.131-22.264-5.239-32.647l0,0
						c8.192-10.778,23.907-12.109,33.795-2.862l142.101,132.89L220.58,491.365z"/>
					<path style="fill:#551F78;" d="M161.754,459.521L-9.628,393.603c-12.172-4.682-17.963-18.586-12.711-30.524l0,0
						c5.451-12.392,20.422-17.353,32.195-10.668l169.184,96.07L161.754,459.521z"/>
					<path style="fill:#452797;" d="M132.688,478.331l-178.596-42.666c-12.685-3.03-20.264-16.047-16.638-28.574l0,0
						c3.764-13.004,17.947-19.902,30.5-14.833l180.406,72.845L132.688,478.331z"/>
					<path style="fill:#551F78;" d="M213.264,504.754l-183.536-5.595c-13.036-0.397-23.095-11.608-22.082-24.61l0,0
						c1.051-13.497,13.542-23.125,26.862-20.705l191.423,34.78L213.264,504.754z"/>
				</g>
				<g>
					<path style="fill:#5B34C8;" d="M207.263,493.694l46.753-145.086c3.321-10.305,14.579-15.744,24.716-11.94h0
						c10.522,3.948,15.322,16.129,10.323,26.194l-71.846,144.651L207.263,493.694z"/>
					<path style="fill:#782CA9;" d="M206.7,512.36l23.493-225.02c0.825-10.795,10.504-18.711,21.248-17.377l0,0
						c11.153,1.385,18.663,12.109,16.15,23.063l-47.996,230.451L206.7,512.36z"/>
					<path style="fill:#653ADE;" d="M215.308,498.835L138.292,367.29c-5.47-9.343-2.022-21.362,7.569-26.385h0
						c9.956-5.214,22.237-0.676,26.41,9.76l59.969,149.965L215.308,498.835z"/>
					<path style="fill:#782CA9;" d="M226.867,504.44L76.737,344.221c-7.499-7.809-6.951-20.301,1.204-27.422l0,0
						c8.465-7.393,21.465-5.845,27.958,3.329l137.851,182.107L226.867,504.44z"/>
					<path style="fill:#5B34C8;" d="M208.441,509.828L34.644,363.048c-8.466-6.748-9.575-19.203-2.434-27.341l0,0
						c7.413-8.448,20.504-8.633,28.152-0.399l164.521,170.1L208.441,509.828z"/>
					<path style="fill:#782CA9;" d="M205.091,506.32L69.114,437.429c-9.658-4.893-13.267-16.864-7.923-26.28l0,0
						c5.547-9.774,18.329-12.608,27.488-6.095l131.618,93.607L205.091,506.32z"/>
				</g>
			</g>
			<g>
				<g>
					<path style="fill:#452797;" d="M290.329,460.204l182.149-23.21c12.937-1.648,24.627,7.849,25.663,20.85l0,0
						c1.075,13.495-9.755,24.96-23.289,24.656l-194.508-4.381L290.329,460.204z"/>
					<path style="fill:#551F78;" d="M210.552,498.604l316.564-118.926c12.196-4.621,25.779,1.887,29.819,14.287v0
						c4.194,12.872-3.662,26.547-16.894,29.409l-335.02,94.98L210.552,498.604z"/>
					<path style="fill:#4F2DAD;" d="M288.836,471.608l104.083-151.274c7.392-10.744,22.264-13.131,32.647-5.239l0,0
						c10.778,8.192,12.109,23.907,2.862,33.795l-132.89,142.101L288.836,471.608z"/>
					<path style="fill:#551F78;" d="M320.68,412.782L386.597,241.4c4.682-12.173,18.586-17.963,30.524-12.711l0,0
						c12.392,5.451,17.353,20.422,10.668,32.195l-96.07,169.184L320.68,412.782z"/>
					<path style="fill:#452797;" d="M301.87,383.717l42.666-178.596c3.03-12.685,16.047-20.264,28.574-16.638l0,0
						c13.004,3.764,19.902,17.947,14.833,30.501l-72.845,180.406L301.87,383.717z"/>
					<path style="fill:#551F78;" d="M275.447,464.292l5.594-183.536c0.397-13.036,11.608-23.095,24.61-22.082h0
						c13.497,1.051,23.125,13.542,20.705,26.862l-34.78,191.424L275.447,464.292z"/>
				</g>
				<g>
					<path style="fill:#5B34C8;" d="M286.507,458.292l145.086,46.753c10.305,3.321,15.744,14.579,11.94,24.716v0
						c-3.948,10.522-16.129,15.323-26.194,10.323l-144.651-71.846L286.507,458.292z"/>
					<path style="fill:#782CA9;" d="M228.861,467.677l263.999,13.545c10.795,0.825,18.711,10.504,17.377,21.248v0
						c-1.385,11.153-12.109,18.663-23.063,16.15l-269.431-38.048L228.861,467.677z"/>
					<path style="fill:#653ADE;" d="M281.365,466.337l131.545-77.016c9.343-5.47,21.362-2.022,26.385,7.569l0,0
						c5.214,9.956,0.676,22.237-9.76,26.409L279.57,483.268L281.365,466.337z"/>
					<path style="fill:#782CA9;" d="M222.212,512.393l213.767-184.628c7.809-7.499,20.301-6.951,27.422,1.204v0
						c7.393,8.465,5.845,21.465-3.329,27.958L224.417,529.275L222.212,512.393z"/>
					<path style="fill:#5B34C8;" d="M322.138,404.87l95.014-119.198c6.748-8.466,19.203-9.575,27.341-2.434l0,0
						c8.448,7.413,8.633,20.504,0.399,28.152L326.557,421.313L322.138,404.87z"/>
					<path style="fill:#782CA9;" d="M235.354,513.936l107.417-193.793c4.893-9.658,16.864-13.267,26.28-7.923l0,0
						c9.774,5.547,12.608,18.329,6.095,27.488L243.013,529.142L235.354,513.936z"/>
				</g>
			</g>
		</g>
	</g>
	<polyline style="fill:none;stroke:#83CFFF;stroke-linecap:round;stroke-linejoin:round;stroke-miterlimit:10;" points="
		463.401,328.969 250,500.922 369.051,312.219 	"/>
	
		<line style="fill:none;stroke:#83CFFF;stroke-linecap:round;stroke-linejoin:round;stroke-miterlimit:10;" x1="413.587" y1="369.108" x2="441.996" y2="370.147"/>
	
		<line style="fill:none;stroke:#83CFFF;stroke-linecap:round;stroke-linejoin:round;stroke-miterlimit:10;" x1="435.955" y1="351.084" x2="437.889" y2="326.163"/>
	
		<line style="fill:none;stroke:#83CFFF;stroke-linecap:round;stroke-linejoin:round;stroke-miterlimit:10;" x1="328.388" y1="437.759" x2="347.432" y2="439.307"/>
	
		<line style="fill:none;stroke:#83CFFF;stroke-linecap:round;stroke-linejoin:round;stroke-miterlimit:10;" x1="317.612" y1="393.753" x2="344.683" y2="383.382"/>
	
		<line style="fill:none;stroke:#83CFFF;stroke-linecap:round;stroke-linejoin:round;stroke-miterlimit:10;" x1="336.138" y1="364.389" x2="331.147" y2="341.113"/>
	
		<line style="fill:none;stroke:#83CFFF;stroke-linecap:round;stroke-linejoin:round;stroke-miterlimit:10;" x1="347.432" y1="346.488" x2="372.686" y2="343.234"/>
	
		<line style="fill:none;stroke:#83CFFF;stroke-linecap:round;stroke-linejoin:round;stroke-miterlimit:10;" x1="324" y1="456" x2="439.295" y2="396.889"/>
	
		<line style="fill:none;stroke:#83CFFF;stroke-linecap:round;stroke-linejoin:round;stroke-miterlimit:10;" x1="406.186" y1="413.864" x2="429.535" y2="423.299"/>
	
		<line style="fill:none;stroke:#83CFFF;stroke-linecap:round;stroke-linejoin:round;stroke-miterlimit:10;" x1="383.917" y1="425.281" x2="392.193" y2="406.571"/>
	
		<line style="fill:none;stroke:#83CFFF;stroke-linecap:round;stroke-linejoin:round;stroke-miterlimit:10;" x1="309.964" y1="436.602" x2="444.492" y2="283.238"/>
	
		<line style="fill:none;stroke:#83CFFF;stroke-linecap:round;stroke-linejoin:round;stroke-miterlimit:10;" x1="383.917" y1="354.176" x2="406.186" y2="347.344"/>
	
		<line style="fill:none;stroke:#83CFFF;stroke-linecap:round;stroke-linejoin:round;stroke-miterlimit:10;" x1="415.475" y1="316.319" x2="419.477" y2="283.238"/>
	
		<line style="fill:none;stroke:#83CFFF;stroke-linecap:round;stroke-linejoin:round;stroke-miterlimit:10;" x1="377.228" y1="321.504" x2="417.121" y2="228.689"/>
	
		<line style="fill:none;stroke:#83CFFF;stroke-linecap:round;stroke-linejoin:round;stroke-miterlimit:10;" x1="386.566" y1="299.779" x2="410.404" y2="291.499"/>
	<polyline style="fill:none;stroke:#83CFFF;stroke-linecap:round;stroke-linejoin:round;stroke-miterlimit:10;" points="
		423.999,267.558 396.358,276.995 383.917,248.367 	"/>
	
		<line style="fill:none;stroke:#83CFFF;stroke-linecap:round;stroke-linejoin:round;stroke-miterlimit:10;" x1="288.851" y1="417.422" x2="305.652" y2="258.674"/>
	
		<line style="fill:none;stroke:#83CFFF;stroke-linecap:round;stroke-linejoin:round;stroke-miterlimit:10;" x1="295.226" y1="357.183" x2="316.711" y2="338.624"/>
	
		<line style="fill:none;stroke:#83CFFF;stroke-linecap:round;stroke-linejoin:round;stroke-miterlimit:10;" x1="299.002" y1="321.504" x2="280.424" y2="300.985"/>
	
		<line style="fill:none;stroke:#83CFFF;stroke-linecap:round;stroke-linejoin:round;stroke-miterlimit:10;" x1="309.964" y1="375.759" x2="373.11" y2="188.483"/>
	
		<line style="fill:none;stroke:#83CFFF;stroke-linecap:round;stroke-linejoin:round;stroke-miterlimit:10;" x1="351.578" y1="252.343" x2="378.893" y2="241.397"/>
	
		<line style="fill:none;stroke:#83CFFF;stroke-linecap:round;stroke-linejoin:round;stroke-miterlimit:10;" x1="361.487" y1="222.955" x2="347.432" y2="198.834"/>
	
		<line style="fill:none;stroke:#83CFFF;stroke-linecap:round;stroke-linejoin:round;stroke-miterlimit:10;" x1="392.287" y1="210.895" x2="414.318" y2="153.56"/>
	
		<line style="fill:none;stroke:#83CFFF;stroke-linecap:round;stroke-linejoin:round;stroke-miterlimit:10;" x1="398.485" y1="194.764" x2="431.995" y2="182.227"/>
	
		<line style="fill:none;stroke:#83CFFF;stroke-linecap:round;stroke-linejoin:round;stroke-miterlimit:10;" x1="403.302" y1="182.227" x2="388.055" y2="158.561"/>
	
		<line style="fill:none;stroke:#83CFFF;stroke-linecap:round;stroke-linejoin:round;stroke-miterlimit:10;" x1="427.241" y1="163.236" x2="481.882" y2="36.367"/>
	
		<line style="fill:none;stroke:#83CFFF;stroke-linecap:round;stroke-linejoin:round;stroke-miterlimit:10;" x1="443.813" y1="124.758" x2="486.669" y2="109.178"/>
	
		<line style="fill:none;stroke:#83CFFF;stroke-linecap:round;stroke-linejoin:round;stroke-miterlimit:10;" x1="459.548" y1="88.223" x2="443.391" y2="55.846"/>
	
		<line style="fill:none;stroke:#83CFFF;stroke-linecap:round;stroke-linejoin:round;stroke-miterlimit:10;" x1="435.955" y1="215.644" x2="500" y2="138.448"/>
	
		<line style="fill:none;stroke:#83CFFF;stroke-linecap:round;stroke-linejoin:round;stroke-miterlimit:10;" x1="447.822" y1="201.341" x2="477.119" y2="201.341"/>
	
		<line style="fill:none;stroke:#83CFFF;stroke-linecap:round;stroke-linejoin:round;stroke-miterlimit:10;" x1="470.528" y1="173.973" x2="473.607" y2="134.225"/>
	
		<line style="fill:none;stroke:#83CFFF;stroke-linecap:round;stroke-linejoin:round;stroke-miterlimit:10;" x1="309.964" y1="259.433" x2="351.827" y2="94.071"/>
	
		<line style="fill:none;stroke:#83CFFF;stroke-linecap:round;stroke-linejoin:round;stroke-miterlimit:10;" x1="330.896" y1="176.752" x2="357.437" y2="167.82"/>
	
		<line style="fill:none;stroke:#83CFFF;stroke-linecap:round;stroke-linejoin:round;stroke-miterlimit:10;" x1="338.581" y1="146.397" x2="315.799" y2="124.758"/>
	
		<line style="fill:none;stroke:#83CFFF;stroke-linecap:round;stroke-linejoin:round;stroke-miterlimit:10;" x1="218.512" y1="462.936" x2="251.441" y2="269.963"/>
	
		<line style="fill:none;stroke:#83CFFF;stroke-linecap:round;stroke-linejoin:round;stroke-miterlimit:10;" x1="233.35" y1="382.064" x2="251.441" y2="370.568"/>
	
		<line style="fill:none;stroke:#83CFFF;stroke-linecap:round;stroke-linejoin:round;stroke-miterlimit:10;" x1="246.821" y1="300.72" x2="224.039" y2="147.97"/>
	
		<line style="fill:none;stroke:#83CFFF;stroke-linecap:round;stroke-linejoin:round;stroke-miterlimit:10;" x1="237.654" y1="239.254" x2="252.872" y2="213.003"/>
	
		<line style="fill:none;stroke:#83CFFF;stroke-linecap:round;stroke-linejoin:round;stroke-miterlimit:10;" x1="232.235" y1="207.764" x2="209.411" y2="197.367"/>
	
		<line style="fill:none;stroke:#83CFFF;stroke-linecap:round;stroke-linejoin:round;stroke-miterlimit:10;" x1="164.675" y1="137.639" x2="206.815" y2="282.06"/>
	
		<line style="fill:none;stroke:#83CFFF;stroke-linecap:round;stroke-linejoin:round;stroke-miterlimit:10;" x1="193.101" y1="235.059" x2="204.599" y2="213.003"/>
	
		<line style="fill:none;stroke:#83CFFF;stroke-linecap:round;stroke-linejoin:round;stroke-miterlimit:10;" x1="180.245" y1="191.001" x2="154.917" y2="184.861"/>
	
		<line style="fill:none;stroke:#83CFFF;stroke-linecap:round;stroke-linejoin:round;stroke-miterlimit:10;" x1="205.329" y1="428.043" x2="142.937" y2="223.265"/>
	
		<line style="fill:none;stroke:#83CFFF;stroke-linecap:round;stroke-linejoin:round;stroke-miterlimit:10;" x1="176.625" y1="333.832" x2="185.966" y2="307.722"/>
	
		<line style="fill:none;stroke:#83CFFF;stroke-linecap:round;stroke-linejoin:round;stroke-miterlimit:10;" x1="167.581" y1="302.713" x2="142.937" y2="290.787"/>
	
		<line style="fill:none;stroke:#83CFFF;stroke-linecap:round;stroke-linejoin:round;stroke-miterlimit:10;" x1="227.259" y1="492.328" x2="77.941" y2="316.799"/>
	
		<line style="fill:none;stroke:#83CFFF;stroke-linecap:round;stroke-linejoin:round;stroke-miterlimit:10;" x1="168.538" y1="423.299" x2="168.538" y2="402.877"/>
	
		<line style="fill:none;stroke:#83CFFF;stroke-linecap:round;stroke-linejoin:round;stroke-miterlimit:10;" x1="143.404" y1="393.753" x2="118.29" y2="388.567"/>
	
		<line style="fill:none;stroke:#83CFFF;stroke-linecap:round;stroke-linejoin:round;stroke-miterlimit:10;" x1="209.903" y1="500.922" x2="61.191" y2="411.149"/>
	
		<line style="fill:none;stroke:#83CFFF;stroke-linecap:round;stroke-linejoin:round;stroke-miterlimit:10;" x1="160.84" y1="471.305" x2="152.6" y2="450.515"/>
	
		<line style="fill:none;stroke:#83CFFF;stroke-linecap:round;stroke-linejoin:round;stroke-miterlimit:10;" x1="107.188" y1="438.533" x2="77.941" y2="441.901"/>
	
		<line style="fill:none;stroke:#83CFFF;stroke-linecap:round;stroke-linejoin:round;stroke-miterlimit:10;" x1="100.38" y1="30.316" x2="150.258" y2="176.752"/>
	
		<line style="fill:none;stroke:#83CFFF;stroke-linecap:round;stroke-linejoin:round;stroke-miterlimit:10;" x1="122.096" y1="94.071" x2="142.937" y2="59.449"/>
	
		<line style="fill:none;stroke:#83CFFF;stroke-linecap:round;stroke-linejoin:round;stroke-miterlimit:10;" x1="126.677" y1="107.521" x2="92.105" y2="103.534"/>
	
		<line style="fill:none;stroke:#83CFFF;stroke-linecap:round;stroke-linejoin:round;stroke-miterlimit:10;" x1="152.794" y1="316.799" x2="23.446" y2="147.97"/>
	
		<line style="fill:none;stroke:#83CFFF;stroke-linecap:round;stroke-linejoin:round;stroke-miterlimit:10;" x1="93.383" y1="239.254" x2="92.894" y2="197.367"/>
	
		<line style="fill:none;stroke:#83CFFF;stroke-linecap:round;stroke-linejoin:round;stroke-miterlimit:10;" x1="62.415" y1="198.834" x2="28.193" y2="198.834"/>
	
		<line style="fill:none;stroke:#83CFFF;stroke-linecap:round;stroke-linejoin:round;stroke-miterlimit:10;" x1="48.975" y1="264.483" x2="150.258" y2="339.259"/>
	
		<line style="fill:none;stroke:#83CFFF;stroke-linecap:round;stroke-linejoin:round;stroke-miterlimit:10;" x1="122.847" y1="319.57" x2="112.673" y2="282.06"/>
	
		<line style="fill:none;stroke:#83CFFF;stroke-linecap:round;stroke-linejoin:round;stroke-miterlimit:10;" x1="93.383" y1="296.75" x2="52.707" y2="301.871"/>
</g>
<g id="OBJECTS">
	<g>
		<path style="fill:#ED179B;" d="M58.229,168.226c-1.075-1.182-2.324-2.183-3.704-2.988c-4.53-2.643-15.213-7.474-25.071-1.445
			c-12.939,7.913,4.901,49.109,27.362,44.709C78.389,204.275,70.023,181.201,58.229,168.226z"/>
		<path style="fill:#3417ED;" d="M56.52,177.572c-1.191-3.275-3.523-6.004-6.482-7.846c-4.305-2.68-11.473-5.94-17.604-2.96
			c-9.49,4.612-3.571,26.015,9.315,31.482C53.064,203.049,61.034,189.991,56.52,177.572z"/>
		<path style="fill:#14B6D4;" d="M50.621,176.891c-1.626-3.126-4.16-5.738-7.379-7.17c-2.749-1.222-6.263-1.86-9.322,0.474
			c-6.117,4.669-1.511,22.93,7.987,25.318C50.396,197.646,56.56,188.31,50.621,176.891z"/>
		<path style="fill:#201333;" d="M42.107,175.181c0,0-1.314-5.07-5.945-3.015c-4.631,2.055-2.396,8.904,1.424,10.836
			C41.406,184.936,43.083,179.769,42.107,175.181z"/>
	</g>
	<g>
		<path style="fill:#ED179B;" d="M114.108,336.386c0,0-3.464-13.985-18.826-12.877c-15.362,1.108-14.81,30.777,0.577,35.296
			C111.247,363.323,118.024,347.703,114.108,336.386z"/>
		<path style="fill:#3417ED;" d="M108.665,333.769c0,0-4.798-9.969-13.985-7.301c-9.187,2.667-10.289,21.436,0,27.671
			C104.969,360.373,115.315,345.887,108.665,333.769z"/>
		<path style="fill:#14B6D4;" d="M102.973,330.38c0,0-4.186-3.731-9.646-1.001c-5.46,2.73-5.551,14.378,0.546,18.473
			C99.97,351.946,113.892,339.389,102.973,330.38z"/>
		<path style="fill:#201333;" d="M102.352,337.864c0,0-1.924-2.181-4.683-0.898c-2.758,1.283-2.076,7.711,1.4,8.531
			C102.545,346.318,105.239,342.098,102.352,337.864z"/>
	</g>
	<g>
		<path style="fill:#ED179B;" d="M77.031,436.398c0,0,8.64,7.445,18.053-0.304c9.412-7.749-4.528-26.655-16.533-22.528
			C66.546,417.694,69.321,430.883,77.031,436.398z"/>
		<path style="fill:#3417ED;" d="M81.744,435.596c0,0,7.663,4.24,12.374-1.688c4.711-5.929-3.17-18.553-12.669-17.868
			C71.95,416.724,71.901,430.815,81.744,435.596z"/>
		<path style="fill:#14B6D4;" d="M86.971,435.178c0,0,4.411,0.493,6.687-3.77c2.276-4.263-2.998-11.826-8.81-11.678
			C79.036,419.877,75.795,434.36,86.971,435.178z"/>
		<path style="fill:#201333;" d="M83.946,430.061c0,0,2.241,0.527,3.435-1.564c1.194-2.091-2.19-5.93-4.81-4.868
			C79.951,424.69,80.143,428.649,83.946,430.061z"/>
	</g>
	<g>
		<path style="fill:#ED179B;" d="M188.625,158.097c0,0-3.464-13.985-18.826-12.877s-14.81,30.777,0.577,35.296
			C185.763,185.033,192.54,169.414,188.625,158.097z"/>
		<path style="fill:#3417ED;" d="M183.182,155.48c0,0-4.798-9.969-13.985-7.301c-9.187,2.667-10.289,21.436,0,27.671
			C179.485,182.084,189.831,167.598,183.182,155.48z"/>
		<path style="fill:#14B6D4;" d="M177.489,152.091c0,0-4.186-3.731-9.646-1.001c-5.46,2.73-5.551,14.378,0.546,18.473
			C174.486,173.657,188.409,161.1,177.489,152.091z"/>
		<path style="fill:#201333;" d="M176.868,159.575c0,0-1.924-2.181-4.683-0.898c-2.758,1.283-2.076,7.711,1.4,8.531
			C177.061,168.028,179.755,163.808,176.868,159.575z"/>
	</g>
	<g>
		<path style="fill:#ED179B;" d="M97.784,165.897c0,0,2.214,14.237,17.613,14.492c15.4,0.255,17.474-29.347,2.547-35.209
			C103.016,139.318,94.884,154.277,97.784,165.897z"/>
		<path style="fill:#3417ED;" d="M102.974,168.985c0,0,3.898,10.354,13.285,8.51c9.387-1.844,12.144-20.442,2.447-27.562
			C109.009,142.812,97.422,156.326,102.974,168.985z"/>
		<path style="fill:#14B6D4;" d="M108.345,172.864c0,0,3.84,4.086,9.519,1.85c5.68-2.236,6.801-13.831,1.09-18.449
			C113.243,151.647,98.264,162.925,108.345,172.864z"/>
		<path style="fill:#201333;" d="M109.625,165.464c0,0,1.724,2.342,4.585,1.309c2.861-1.034,2.75-7.497-0.64-8.622
			C110.18,157.027,107.124,160.992,109.625,165.464z"/>
	</g>
	<g>
		<path style="fill:#ED179B;" d="M145.969,29.187c0,0,2.214,14.237,17.613,14.492s17.474-29.347,2.547-35.208
			C151.201,2.608,143.069,17.567,145.969,29.187z"/>
		<path style="fill:#3417ED;" d="M151.159,32.275c0,0,3.898,10.354,13.285,8.51c9.387-1.844,12.144-20.442,2.447-27.562
			C157.193,6.101,145.607,19.615,151.159,32.275z"/>
		<path style="fill:#14B6D4;" d="M156.529,36.154c0,0,3.84,4.086,9.52,1.85c5.68-2.236,6.801-13.83,1.09-18.448
			C161.428,14.937,146.449,26.215,156.529,36.154z"/>
		<path style="fill:#201333;" d="M157.809,28.754c0,0,1.724,2.343,4.585,1.309c2.861-1.034,2.749-7.497-0.64-8.622
			C158.365,20.316,155.309,24.282,157.809,28.754z"/>
	</g>
	<g>
		<g>
			<path style="fill:#ED179B;stroke:#201333;stroke-width:2;stroke-miterlimit:10;" d="M323.773,359.466c-0.007,0-0.013,0-0.02,0
				c-0.413-17.826-14.982-32.152-32.907-32.152c-18.185,0-32.926,14.742-32.926,32.926v65.078h65.078v-0.02
				c0.258,0.006,0.515,0.02,0.775,0.02c18.185,0,32.926-14.742,32.926-32.926C356.699,374.207,341.957,359.466,323.773,359.466z"/>
			<path style="fill:#7813C4;" d="M305.524,361.638h-0.01c0.955-2.172,1.495-4.568,1.495-7.093c0-9.746-7.901-17.647-17.647-17.647
				c-9.746,0-17.646,7.901-17.646,17.647c0,4.076,1.395,7.818,3.716,10.806l13.974,24.204l14.271-24.718
				c0.695-0.965,1.297-1.999,1.788-3.097L305.524,361.638z"/>
			<path style="fill:#ED179B;" d="M297.92,358.799l0.264-0.544c0.522-1.186,0.816-2.495,0.816-3.874
				c0-5.323-4.315-9.638-9.638-9.638c-5.323,0-9.637,4.315-9.637,9.638c0,2.226,0.762,4.27,2.03,5.902l7.632,13.219l7.794-13.5
				c0.38-0.527,0.708-1.092,0.976-1.691L297.92,358.799z"/>
			<path style="fill:#7813C4;" d="M318.387,407.31v-0.01c2.172,0.955,4.568,1.495,7.093,1.495c9.746,0,17.647-7.901,17.647-17.647
				s-7.901-17.647-17.647-17.647c-4.076,0-7.818,1.396-10.806,3.716l-24.204,13.974l24.718,14.271
				c0.965,0.695,1.999,1.297,3.097,1.788L318.387,407.31z"/>
			<path style="fill:#7813C4;" d="M297.1,424.382c-0.355-20.973-17.404-37.876-38.436-37.983v37.983H297.1z"/>
			<path style="fill:#ED179B;" d="M282.899,424.382c-0.224-13.224-10.974-23.882-24.235-23.95v23.95H282.899z"/>
			<path style="fill:#ED179B;" d="M319.008,399.706l0.544,0.264c1.186,0.522,2.495,0.816,3.874,0.816
				c5.323,0,9.638-4.315,9.638-9.638c0-5.323-4.315-9.638-9.638-9.638c-2.226,0-4.27,0.762-5.901,2.03l-13.219,7.632l13.5,7.794
				c0.527,0.38,1.092,0.708,1.691,0.977L319.008,399.706z"/>
		</g>
		<g>
			<path style="fill:#ED179B;stroke:#201333;stroke-width:2;stroke-miterlimit:10;" d="M167.807,359.466c0.007,0,0.013,0,0.02,0
				c0.413-17.826,14.982-32.152,32.907-32.152c18.185,0,32.926,14.742,32.926,32.926v65.078h-65.078v-0.02
				c-0.258,0.006-0.515,0.02-0.775,0.02c-18.185,0-32.926-14.742-32.926-32.926C134.881,374.207,149.623,359.466,167.807,359.466z"
				/>
			<path style="fill:#7813C4;" d="M186.056,361.638h0.01c-0.955-2.172-1.495-4.568-1.495-7.093c0-9.746,7.901-17.647,17.647-17.647
				s17.647,7.901,17.647,17.647c0,4.076-1.396,7.818-3.716,10.806l-13.974,24.204l-14.271-24.718
				c-0.695-0.965-1.296-1.999-1.788-3.097L186.056,361.638z"/>
			<path style="fill:#ED179B;" d="M193.66,358.799l-0.264-0.544c-0.522-1.186-0.816-2.495-0.816-3.874
				c0-5.323,4.315-9.638,9.638-9.638c5.323,0,9.638,4.315,9.638,9.638c0,2.226-0.762,4.27-2.03,5.902l-7.632,13.219l-7.794-13.5
				c-0.38-0.527-0.708-1.092-0.976-1.691L193.66,358.799z"/>
			<path style="fill:#7813C4;" d="M173.194,407.31v-0.01c-2.172,0.955-4.568,1.495-7.093,1.495c-9.746,0-17.647-7.901-17.647-17.647
				s7.901-17.647,17.647-17.647c4.076,0,7.818,1.396,10.806,3.716l24.204,13.974l-24.718,14.271
				c-0.965,0.695-1.999,1.297-3.097,1.788L173.194,407.31z"/>
			<path style="fill:#7813C4;" d="M194.48,424.382c0.355-20.973,17.404-37.876,38.436-37.983v37.983H194.48z"/>
			<path style="fill:#ED179B;stroke:#201333;stroke-width:2;stroke-miterlimit:10;" d="M208.681,424.382
				c0.224-13.224,10.974-23.882,24.235-23.95v23.95H208.681z"/>
			<path style="fill:#ED179B;" d="M172.572,399.706l-0.544,0.264c-1.186,0.522-2.495,0.816-3.874,0.816
				c-5.323,0-9.638-4.315-9.638-9.638c0-5.323,4.315-9.638,9.638-9.638c2.226,0,4.27,0.762,5.902,2.03l13.219,7.632l-13.5,7.794
				c-0.527,0.38-1.092,0.708-1.691,0.977L172.572,399.706z"/>
		</g>
		<path style="fill:none;stroke:#201333;stroke-width:3;stroke-linecap:round;stroke-linejoin:round;stroke-miterlimit:10;" d="
			M289.473,132.841c0,0-2.4-39.686,21.16-76.265"/>
		<path style="fill:none;stroke:#201333;stroke-width:3;stroke-linecap:round;stroke-linejoin:round;stroke-miterlimit:10;" d="
			M274.959,141.773c0,0-15.729-52.71-35.926-85.197"/>
		<path style="fill:none;stroke:#201333;stroke-width:3;stroke-linecap:round;stroke-linejoin:round;stroke-miterlimit:10;" d="
			M280.668,138.675c0,0-12.67-33.369-23.672-100.919"/>
		<path style="fill:none;stroke:#201333;stroke-width:3;stroke-linecap:round;stroke-linejoin:round;stroke-miterlimit:10;" d="
			M285.458,138.969c0,0-7.696-72.293-3.394-110.984"/>
		<g>
			<path style="fill:#ED179B;stroke:#201333;stroke-width:2;stroke-miterlimit:10;" d="M340.056,425.055
				c-0.007,0-0.015,0.001-0.022,0.001c-0.475-20.499-17.229-36.974-37.842-36.974c-20.912,0-37.864,16.952-37.864,37.864v74.837
				h74.837v-0.022c0.297,0.007,0.592,0.022,0.891,0.022c20.912,0,37.864-16.952,37.864-37.864S360.968,425.055,340.056,425.055z"/>
			<path style="fill:#7813C4;" d="M319.071,427.553h-0.011c1.099-2.498,1.719-5.253,1.719-8.157
				c0-11.208-9.086-20.293-20.293-20.293c-11.207,0-20.293,9.085-20.293,20.293c0,4.687,1.605,8.991,4.274,12.426l16.07,27.834
				l16.411-28.425c0.799-1.11,1.491-2.299,2.056-3.561L319.071,427.553z"/>
			<path style="fill:#ED179B;" d="M310.326,424.289l0.304-0.625c0.6-1.364,0.939-2.869,0.939-4.455
				c0-6.121-4.962-11.083-11.083-11.083c-6.121,0-11.083,4.962-11.083,11.083c0,2.56,0.876,4.91,2.334,6.787l8.776,15.201
				l8.963-15.524c0.437-0.606,0.814-1.256,1.123-1.945L310.326,424.289z"/>
			<path style="fill:#7813C4;" d="M333.862,480.075v-0.011c2.498,1.099,5.253,1.719,8.157,1.719
				c11.208,0,20.293-9.086,20.293-20.293c0-11.208-9.085-20.293-20.293-20.293c-4.687,0-8.991,1.605-12.426,4.274l-27.834,16.07
				l28.425,16.411c1.11,0.799,2.299,1.491,3.561,2.056L333.862,480.075z"/>
			<path style="fill:#7813C4;" d="M309.384,499.706c-0.408-24.118-20.014-43.556-44.2-43.679v43.679H309.384z"/>
			<path style="fill:#ED179B;" d="M293.053,499.706c-0.257-15.207-12.619-27.463-27.869-27.541v27.541H293.053z"/>
			<path style="fill:#ED179B;" d="M334.577,471.33l0.625,0.304c1.364,0.6,2.869,0.939,4.455,0.939
				c6.121,0,11.083-4.962,11.083-11.083c0-6.121-4.962-11.083-11.083-11.083c-2.56,0-4.91,0.876-6.787,2.334l-15.201,8.777
				l15.524,8.963c0.606,0.437,1.256,0.814,1.945,1.123L334.577,471.33z"/>
		</g>
		<g>
			<path style="fill:#ED179B;stroke:#201333;stroke-width:2;stroke-miterlimit:10;" d="M138.454,425.055
				c0.008,0,0.015,0.001,0.022,0.001c0.475-20.499,17.229-36.974,37.842-36.974c20.912,0,37.864,16.952,37.864,37.864v74.837
				h-74.837v-0.022c-0.297,0.007-0.592,0.022-0.891,0.022c-20.912,0-37.864-16.952-37.864-37.864S117.542,425.055,138.454,425.055z"
				/>
			<path style="fill:#7813C4;" d="M159.439,427.553h0.011c-1.099-2.498-1.719-5.253-1.719-8.157
				c0-11.208,9.085-20.293,20.293-20.293s20.293,9.085,20.293,20.293c0,4.687-1.605,8.991-4.274,12.426l-16.07,27.834
				l-16.411-28.425c-0.799-1.11-1.491-2.299-2.056-3.561L159.439,427.553z"/>
			<path style="fill:#ED179B;" d="M168.184,424.289l-0.304-0.625c-0.6-1.364-0.939-2.869-0.939-4.455
				c0-6.121,4.962-11.083,11.083-11.083c6.121,0,11.083,4.962,11.083,11.083c0,2.56-0.876,4.91-2.334,6.787l-8.776,15.201
				l-8.963-15.524c-0.437-0.606-0.814-1.256-1.123-1.945L168.184,424.289z"/>
			<path style="fill:#7813C4;" d="M144.648,480.075v-0.011c-2.498,1.099-5.253,1.719-8.157,1.719
				c-11.208,0-20.293-9.086-20.293-20.293c0-11.208,9.085-20.293,20.293-20.293c4.687,0,8.991,1.605,12.426,4.274l27.834,16.07
				l-28.425,16.411c-1.11,0.799-2.299,1.491-3.561,2.056L144.648,480.075z"/>
			<path style="fill:#7813C4;" d="M169.126,499.706c0.408-24.118,20.014-43.556,44.2-43.679v43.679H169.126z"/>
			<path style="fill:#ED179B;stroke:#201333;stroke-width:2;stroke-miterlimit:10;" d="M185.457,499.706
				c0.257-15.207,12.619-27.463,27.869-27.541v27.541H185.457z"/>
			<path style="fill:#ED179B;" d="M143.933,471.33l-0.626,0.304c-1.364,0.6-2.869,0.939-4.455,0.939
				c-6.121,0-11.083-4.962-11.083-11.083c0-6.121,4.962-11.083,11.083-11.083c2.56,0,4.91,0.876,6.787,2.334l15.201,8.777
				l-15.524,8.963c-0.606,0.437-1.256,0.814-1.945,1.123L143.933,471.33z"/>
		</g>
		<ellipse style="fill:#28238B;" cx="281.034" cy="173.49" rx="38.23" ry="41.668"/>
		<path style="fill:#28238B;" d="M296.956,211.38c0,0-0.202,0.025-0.555,0.147c-2.231,0.769-10.579,5.395-11.524,31.95
			c-1.206,33.897,0.008,261.042,0,257.935H161.491c0,0,42.882-89.643,63.514-146.684c20.632-57.041,36.077-128.926,24.107-158.318"
			/>
		<path style="fill:#ADB3CB;" d="M317.607,185.656l-6.333,55.264l-24.157-32.979c0,0-1.334-15.348,10.802-21.214
			c6.198-2.996,13.469-0.425,15.14,4.632c0.448,1.356,2.372,1.335,2.794-0.029L317.607,185.656z"/>
		<path style="fill:none;stroke:#0F55A4;stroke-miterlimit:10;" d="M232.229,337.598c0,0,18.479,10.704,25.08,37.314
			c6.601,26.61,26.767,30.702,26.767,30.702"/>
		<path style="fill:none;stroke:#0F55A4;stroke-miterlimit:10;" d="M284.076,363.649c0,0-11.776,2.115-20.575-10.361
			c-8.799-12.476-7.626,7.233,1.369,21.624c8.994,14.391,18.966,16.737,18.966,16.737"/>
		<path style="fill:none;stroke:#0F55A4;stroke-miterlimit:10;" d="M224.275,356.73c0,0,16.544,4.863,24.365,23.9
			c7.821,19.036,22.29,24.706,20.921,33.701c-1.369,8.994-41.369,4.564-52.653-1.531c-11.284-6.095-12.184-7.186-12.184-7.186"/>
		<path style="fill:#0F55A4;" d="M247.975,272.399c0,0,8.41,8.024,15.572,23.049c7.163,15.025,20.529,25.336,20.529,25.336
			l0.359-41.538c0,0-8.107,2.959-16.814-16.499c-4.713-10.532-15.362-19.121-15.362-19.121L247.975,272.399z"/>
		<path style="fill:#201333;" d="M284.66,253.176c0,0-1.71-12.256-18.64-28.748c-7.985-7.779-11.548-15.002-16.265-25.102
			c-0.515-1.103-3.348-8.008-3.807-10.205c0,0,9.392,28.123,45.336,24.51l1.999,2.729
			C293.283,216.36,284.307,223.538,284.66,253.176z"/>
		<path style="fill:#577AA1;" d="M299.617,225.006l-22.439-27.75c0,0,7.629,6.339,12.105-1.499
			C294.498,186.628,298.891,203.661,299.617,225.006z"/>
		<path style="fill:#577AA1;" d="M289.283,195.758c0,0,3.667-8.234,13.057-10.309c0,0,6.796-0.648,10.415,5.154
			c0,0-1.256-8.434-8.638-9.831C296.735,179.376,289.514,186.883,289.283,195.758z"/>
		<path style="fill:#F3F2F1;" d="M242.845,171.618c0.092-14.531,6.021-23.706,11.928-29.25c7.923-7.435,20.704-4.951,25.055,5.006
			c4.938,11.302,3.577,26.31,4.526,31.174c2.063,10.573,6.926,9.633,6.926,9.633c-1.54,3.337-1.997,6.372-1.997,6.372
			s-5.324-2.569-8.249-11.856c-2.925-9.287-1.818-37.148-16.381-35.876c-14.564,1.272-15.736,19.48-15.736,19.48
			s-0.571,12.976,10.555,18.489c11.126,5.512,6.971,15.736-3.389,9.763C243.673,187.399,242.845,171.618,242.845,171.618z"/>
		<path style="fill:#F3F2F1;" d="M310.958,185.784c0,0,1.113,1.618,1.797,4.82c0,0,2.841-6.037,3.565-18.858
			c0.698-12.352-0.28-15.02-0.28-15.02s-3.586-9.589-11.346-15.965c0,0,5.877,9.195,7.212,25.504
			C312.969,179.262,310.958,185.784,310.958,185.784z"/>
		<path style="fill:#25DAF0;" d="M270.889,133.307c0,0,8.304,4.309,12.728,9.672c0,0-3.689-7.945-8.414-10.676
			C275.204,132.303,273.752,132.318,270.889,133.307z"/>
		<path style="fill:#25DAF0;" d="M285.972,141.264c0,0,3.277,1.715,3.501,6.085C289.473,147.349,286.181,145.557,285.972,141.264z"
			/>
		<path style="fill:#25DAF0;" d="M284.387,136.455c0,0,0.443,3.459,4.264,5.028C288.651,141.483,288.168,137.903,284.387,136.455z"
			/>
		<path style="fill:#25DAF0;" d="M278.762,131.895c0,0,2.272,5.089,5.113,8.329c0,0-1.704-4.457-0.989-8.329
			C282.887,131.895,280.851,131.7,278.762,131.895z"/>
		<path style="fill:#25DAF0;" d="M290.035,142.979c0,0,0.299,4.248,2.194,6.243C292.229,149.222,292.909,145.288,290.035,142.979z"
			/>
		<path style="fill:#25DAF0;" d="M286.519,147.123c0,0,0.928,4.544,4.648,5.479C291.167,152.602,289.911,148.682,286.519,147.123z"
			/>
		<path style="fill:#25DAF0;" d="M285.972,132.167c0,0,0.697,6.115,5.581,9.316c0,0-3.075-4.202-2.08-8.642
			C289.473,132.841,287.78,132.374,285.972,132.167z"/>
		<path style="fill:#25DAF0;" d="M291.554,138.05c0,0,0.086,1.262,2.32,4.64c2.234,3.377,2.962,5.404,2.962,5.404
			s0.364-3.066-1.091-5.508C294.29,140.143,291.554,138.05,291.554,138.05z"/>
		<path style="fill:#25DAF0;" d="M294.681,147.349c0,0-0.917,4.923,1.63,7.318C296.312,154.667,297.229,150.324,294.681,147.349z"/>
		<path style="fill:#25DAF0;" d="M291.281,135.633c0,0,1.638,3.07,4.56,3.662C295.841,139.294,295.375,136.521,291.281,135.633z"/>
		<path style="fill:#25DAF0;" d="M296.251,174.876c0,0,0.564,6.415-2.254,7.401C291.179,183.263,293.151,176.915,296.251,174.876z"
			/>
		<path style="fill:#25DAF0;" d="M304.695,173.964c0,0,1.464,6.479,4.377,5.917C311.986,179.32,306.657,173.753,304.695,173.964z"/>
		<path style="fill:#25DAF0;" d="M304.695,170.076c0,0,0.402,2.316,2.615,3.201C307.31,173.277,307.321,171.129,304.695,170.076z"/>
		<path style="fill:#201333;" d="M289.283,194.553v1.204c0,0-1.227,3.215-4.531,3.843c-5.522,1.049-8.263-6.793-3.354-9.529
			c0.722-0.402,1.568-0.732,2.558-0.951C283.957,189.121,286.227,192.626,289.283,194.553z"/>
		<path style="fill:#201333;" d="M280.498,180.605c0,0,1.697,8.764,8.786,13.949v1.204
			C289.283,195.758,280.418,193.033,280.498,180.605z"/>
		<path style="fill:#201333;" d="M315.227,181.494c0,0-0.007,6.328-1.497,10.683c0,0-0.733-0.148-0.975-1.573
			C312.755,190.604,314.789,186.367,315.227,181.494z"/>
		<path style="fill:#28235E;" d="M258.068,159.394c0,0-4.216,4.643-1.922,13.081c2.294,8.438,8.11,9.024,10.076,8.567
			c1.966-0.457,3.018-0.79,3.393-4.105C269.616,176.937,267.363,157.372,258.068,159.394z"/>
		<path style="fill:#FFB726;" d="M261.961,159.417c0,0-3.156-0.565-4.286,3.866c-1.129,4.43,0.348,12.162,4.952,14.769
			c4.604,2.606,6.587-2.8,6.587-2.8S266.159,163.022,261.961,159.417z"/>
		<path style="fill:#201333;" d="M266.115,164.244c0,0-0.856-2.997-3.939-1.97c-3.083,1.028-3.34,8.906,0.685,11.647
			c4.025,2.74,5.214-0.856,5.134-5.224C267.913,164.329,266.115,164.244,266.115,164.244z"/>
		<path style="fill:#201333;" d="M258.068,159.394c0,0,4.377-0.95,6.923,4.063c2.546,5.013,3.262,14.084,7.002,17.585
			c0,0-1.377-5.285-2.218-12.574C268.717,159.282,263.4,157.002,258.068,159.394z"/>
		<path style="fill:#0F55A4;" d="M238.444,312.648"/>
		<path style="fill:#25DAF0;" d="M317.368,50.744L308.9,61.069c0,0-3.133-11.39,3.133-15.841c0.063-0.044,0.126-0.089,0.189-0.133
			C315.868,42.548,320.188,47.305,317.368,50.744z"/>
		<path style="fill:#25DAF0;" d="M279.656,20.712l0.238,13.352c0,0,9.522-6.991,7.368-14.369c-0.022-0.074-0.043-0.148-0.066-0.222
			C285.916,15.214,279.577,16.265,279.656,20.712z"/>
		<path style="fill:#25DAF0;" d="M254.314,33.551l2.59,13.1c0,0,8.139-8.561,4.718-15.444c-0.034-0.069-0.069-0.138-0.104-0.207
			C259.506,27.034,253.451,29.188,254.314,33.551z"/>
		<path style="fill:#25DAF0;" d="M233.744,52.681l7.613,10.971c0,0,4.035-11.102-1.853-16.042c-0.059-0.049-0.118-0.099-0.178-0.148
			C235.897,44.633,231.209,49.028,233.744,52.681z"/>
		<path style="fill:none;stroke:#0F55A4;stroke-miterlimit:10;" d="M284.617,444.432c0,0-21.186-18.892-45.397-5.855
			c-24.211,13.037-24.956,23.466-45.815,25.329c-20.859,1.862-23.839,27.024-8.567,37.537"/>
		<path style="fill:none;stroke:#0F55A4;stroke-miterlimit:10;" d="M193.405,501.411c0,0-16.017-24.642,18.624-28.839
			c34.641-4.197,24.584-16.914,43.58-24.337c18.997-7.423,29.059,8.966,29.059,8.966"/>
	</g>
	<g>
		<path style="fill:#ED179B;" d="M372.234,247.949c0.101-0.223,0.207-0.442,0.324-0.657c1.191-2.183,8.683-17.277-2.867-32.479
			c-12.488-16.437-34.853,6.682-32.104,29.822C340.32,267.644,362.023,270.592,372.234,247.949z"/>
		<path style="fill:#3417ED;" d="M366.004,248.28c0.621-0.861,1.11-1.808,1.445-2.816c1.596-4.8,5.914-20.184-1.513-27.353
			c-8.864-8.557-21.122,2.027-23.035,16.753C341.035,249.233,353.606,265.481,366.004,248.28z"/>
		<path style="fill:#14B6D4;" d="M357.569,251.624c1.521-0.803,2.758-2.05,3.665-3.512c2.076-3.343,6.28-11.688-0.374-15.886
			c-8.439-5.324-18.606,9.629-12.615,16.94C351.74,253.431,355.25,252.849,357.569,251.624z"/>
		<path style="fill:#201333;" d="M356.703,248.23c0,0,5.531-4.131-0.125-7.502c-5.657-3.37-8.922,2.789-6.206,7.235
			C353.087,252.409,356.703,248.23,356.703,248.23z"/>
	</g>
	<g>
		<path style="fill:#ED179B;" d="M419.491,52.575c0.101-0.223,0.207-0.442,0.325-0.657c1.191-2.183,8.683-17.277-2.867-32.479
			c-12.488-16.437-34.852,6.682-32.104,29.822C387.578,72.27,409.28,75.218,419.491,52.575z"/>
		<path style="fill:#3417ED;" d="M413.261,52.906c0.621-0.861,1.111-1.808,1.445-2.815c1.596-4.801,5.914-20.184-1.513-27.353
			c-8.864-8.557-21.122,2.027-23.035,16.753C388.293,53.859,400.863,70.107,413.261,52.906z"/>
		<path style="fill:#14B6D4;" d="M404.826,56.25c1.521-0.803,2.758-2.05,3.665-3.512c2.076-3.343,6.28-11.688-0.374-15.886
			c-8.439-5.324-18.606,9.629-12.615,16.94C398.997,58.057,402.508,57.475,404.826,56.25z"/>
		<path style="fill:#201333;" d="M403.96,52.856c0,0,5.531-4.131-0.125-7.502c-5.657-3.37-8.922,2.789-6.206,7.235
			C400.345,57.035,403.96,52.856,403.96,52.856z"/>
	</g>
</g>
<g id="DESIGNED_BY_FREEPIK">
	<g>
		<g id="XMLID_319_">
			<g id="XMLID_338_">
				<path id="XMLID_346_" style="fill:#FFFFFF;" d="M260.104,465.465c-0.432,0.443-0.803,0.931-1.108,1.453l-0.465-0.241
					c-0.067-0.298-0.349-0.503-0.659-0.466c-0.331,0.039-0.568,0.339-0.529,0.67s0.339,0.568,0.67,0.529
					c0.065-0.008,0.127-0.026,0.184-0.052l0.451,0.234c-0.251,0.554-0.433,1.139-0.539,1.744l0.746,0.132
					c0.23-1.306,0.85-2.507,1.792-3.473L260.104,465.465z"/>
				<path id="XMLID_345_" style="fill:#FFFFFF;" d="M265.592,463.163c-0.171,0-0.341,0.006-0.51,0.017l-0.074-0.626
					c0.188-0.149,0.296-0.389,0.266-0.645c-0.046-0.393-0.402-0.674-0.795-0.628s-0.674,0.402-0.628,0.795
					c0.03,0.254,0.189,0.461,0.405,0.564l0.073,0.624c-0.714,0.116-1.403,0.332-2.06,0.646l0.327,0.684
					c0.934-0.447,1.942-0.673,2.995-0.673c0.496,0,0.993,0.053,1.475,0.158l0.161-0.741
					C266.693,463.222,266.142,463.163,265.592,463.163z"/>
				<path id="XMLID_344_" style="fill:#FFFFFF;" d="M272.194,465.711c0.331-0.04,0.566-0.341,0.525-0.672
					c-0.04-0.331-0.341-0.566-0.672-0.526c-0.309,0.038-0.535,0.304-0.53,0.609l-0.416,0.363c-0.418-0.43-0.89-0.813-1.408-1.139
					l-0.404,0.641c1.134,0.715,2.021,1.726,2.563,2.925l0.691-0.313c-0.251-0.554-0.568-1.072-0.942-1.545l0.402-0.351
					C272.065,465.716,272.129,465.719,272.194,465.711z"/>
				<path id="XMLID_343_" style="fill:#FFFFFF;" d="M265.044,473.372c-0.386,0.023-0.775,0.035-1.157,0.035
					c-0.88,0-1.733-0.061-2.478-0.179c-0.39-0.062-0.846-0.155-1.27-0.292c1.046,1.861,3.069,3.125,5.388,3.125
					c2.855,0,5.262-1.916,5.95-4.504c-0.682,0.449-1.505,0.825-2.459,1.123C267.839,473.047,266.464,473.286,265.044,473.372z"/>
				<path id="XMLID_339_" style="fill:#FFFFFF;" d="M265.592,464.68c-3.352,0-6.08,2.666-6.08,5.943
					c0,0.426,0.046,0.849,0.137,1.261c0.674,0.483,2.706,0.89,5.348,0.731c2.879-0.173,5.297-0.957,6.672-2.159
					c-0.005-0.195-0.021-0.39-0.045-0.582C271.244,466.913,268.65,464.68,265.592,464.68z M263.432,471.194
					c-1.02,0-1.85-0.83-1.85-1.85c0-1.02,0.83-1.85,1.85-1.85c1.02,0,1.85,0.83,1.85,1.85
					C265.282,470.365,264.452,471.194,263.432,471.194z M268.17,470.286c-0.75,0-1.36-0.61-1.36-1.36s0.61-1.361,1.36-1.361
					c0.75,0,1.361,0.61,1.361,1.361S268.92,470.286,268.17,470.286z"/>
			</g>
			<path id="XMLID_336_" style="fill:#FFFFFF;" d="M281.595,466.547c-0.295-0.116-0.806-0.309-1.382-0.237
				c-0.551,0.069-0.844,0.341-0.844,1.007v0.866h2.228v1.717h-2.228v5.455h-1.932v-5.455h-1.34v-1.717h1.34v-0.888
				c0-1.68,0.896-2.783,2.568-2.783c0.642,0,1.157,0.122,1.59,0.308L281.595,466.547z"/>
			<path id="XMLID_334_" style="fill:#FFFFFF;" d="M286.298,469.879c-0.177-0.03-0.358-0.046-0.526-0.046
				c-0.896,0-1.51,0.548-1.51,1.614v3.908h-1.932v-7.172h1.873v0.785c0.451-0.673,1.14-0.977,2.021-0.977
				c0.414,0,0.848,0.128,1.094,0.337L286.298,469.879z"/>
			<path id="XMLID_331_" style="fill:#FFFFFF;" d="M293.965,471.757c0,0.222-0.015,0.489-0.037,0.651h-5.085
				c0.207,1.036,0.933,1.488,1.843,1.488c0.622,0,1.295-0.252,1.813-0.688l1.132,1.243c-0.814,0.748-1.85,1.088-3.057,1.088
				c-2.198,0-3.723-1.495-3.723-3.753c0-2.258,1.48-3.797,3.627-3.797C292.544,467.99,293.958,469.522,293.965,471.757z
				 M288.851,471.091h3.175c-0.177-0.918-0.733-1.436-1.562-1.436C289.554,469.655,289.021,470.203,288.851,471.091z"/>
			<path id="XMLID_328_" style="fill:#FFFFFF;" d="M301.618,471.757c0,0.222-0.015,0.489-0.037,0.651h-5.085
				c0.207,1.036,0.932,1.488,1.843,1.488c0.622,0,1.295-0.252,1.813-0.688l1.132,1.243c-0.814,0.748-1.85,1.088-3.057,1.088
				c-2.198,0-3.723-1.495-3.723-3.753c0-2.258,1.48-3.797,3.627-3.797C300.197,467.99,301.611,469.522,301.618,471.757z
				 M296.504,471.091h3.175c-0.178-0.918-0.733-1.436-1.562-1.436C297.207,469.655,296.674,470.203,296.504,471.091z"/>
			<path id="XMLID_325_" style="fill:#FFFFFF;" d="M309.964,471.764c0,2.154-1.495,3.775-3.471,3.775
				c-0.962,0-1.643-0.378-2.109-0.933v3.708h-1.924v-10.133h1.887v0.792c0.466-0.585,1.155-0.984,2.139-0.984
				C308.469,467.99,309.964,469.61,309.964,471.764z M304.287,471.764c0,1.132,0.747,1.976,1.843,1.976
				c1.14,0,1.85-0.881,1.85-1.976c0-1.095-0.71-1.976-1.85-1.976C305.035,469.788,304.287,470.632,304.287,471.764z"/>
			<path id="XMLID_322_" style="fill:#FFFFFF;" d="M313.068,465.836c0,0.696-0.54,1.229-1.236,1.229
				c-0.696,0-1.229-0.533-1.229-1.229c0-0.696,0.533-1.243,1.229-1.243C312.527,464.592,313.068,465.14,313.068,465.836z
				 M312.809,475.354h-1.932v-7.172h1.932V475.354z"/>
			<path id="XMLID_320_" style="fill:#FFFFFF;" d="M316.032,470.736l2.702-2.554h2.368l-3.479,3.375l3.501,3.797h-2.376
				l-2.716-2.901v2.901H314.1v-10.658h1.932V470.736z"/>
		</g>
		<g>
			<path style="fill:#FFFFFF;" d="M184.412,475.289v-1.055c-0.527,0.718-1.391,1.23-2.387,1.23c-1.846,0-3.149-1.406-3.149-3.706
				c0-2.256,1.289-3.721,3.149-3.721c0.952,0,1.816,0.469,2.387,1.245v-3.765h1.099v9.77H184.412z M184.412,473.37v-3.208
				c-0.395-0.615-1.245-1.143-2.124-1.143c-1.421,0-2.27,1.172-2.27,2.739c0,1.567,0.85,2.724,2.27,2.724
				C183.168,474.483,184.017,473.986,184.412,473.37z"/>
			<path style="fill:#FFFFFF;" d="M186.932,471.744c0-2.051,1.465-3.706,3.486-3.706c2.139,0,3.398,1.67,3.398,3.794v0.279h-5.727
				c0.088,1.333,1.025,2.446,2.549,2.446c0.805,0,1.626-0.322,2.182-0.894l0.527,0.718c-0.703,0.703-1.655,1.084-2.812,1.084
				C188.44,475.465,186.932,473.956,186.932,471.744z M190.403,468.947c-1.509,0-2.256,1.274-2.314,2.358h4.643
				C192.718,470.25,192.015,468.947,190.403,468.947z"/>
			<path style="fill:#FFFFFF;" d="M194.607,474.351l0.571-0.791c0.469,0.542,1.362,1.011,2.329,1.011c1.084,0,1.67-0.513,1.67-1.216
				c0-1.714-4.38-0.659-4.38-3.281c0-1.098,0.952-2.036,2.636-2.036c1.201,0,2.051,0.454,2.622,1.026l-0.513,0.762
				c-0.424-0.513-1.201-0.894-2.109-0.894c-0.967,0-1.567,0.483-1.567,1.113c0,1.552,4.38,0.527,4.38,3.281
				c0,1.187-0.952,2.138-2.783,2.138C196.306,475.465,195.325,475.113,194.607,474.351z"/>
			<path style="fill:#FFFFFF;" d="M201.477,466.471c0-0.41,0.337-0.747,0.732-0.747c0.41,0,0.747,0.337,0.747,0.747
				c0,0.41-0.337,0.732-0.747,0.732C201.814,467.203,201.477,466.881,201.477,466.471z M201.667,475.289v-7.075h1.099v7.075H201.667
				z"/>
			<path style="fill:#FFFFFF;" d="M204.582,477.105l0.556-0.82c0.586,0.703,1.289,0.967,2.3,0.967c1.172,0,2.27-0.571,2.27-2.124
				v-1.011c-0.513,0.718-1.377,1.26-2.373,1.26c-1.845,0-3.149-1.377-3.149-3.662c0-2.27,1.289-3.677,3.149-3.677
				c0.952,0,1.802,0.469,2.373,1.245v-1.069h1.098v6.87c0,2.344-1.641,3.076-3.369,3.076
				C206.237,478.16,205.417,477.926,204.582,477.105z M209.709,473.253v-3.091c-0.381-0.615-1.23-1.143-2.109-1.143
				c-1.421,0-2.27,1.128-2.27,2.695c0,1.553,0.849,2.695,2.27,2.695C208.478,474.41,209.328,473.868,209.709,473.253z"/>
			<path style="fill:#FFFFFF;" d="M217.413,475.289v-4.629c0-1.245-0.63-1.641-1.582-1.641c-0.865,0-1.685,0.527-2.095,1.099v5.17
				h-1.099v-7.075h1.099v1.025c0.498-0.586,1.464-1.201,2.519-1.201c1.48,0,2.256,0.747,2.256,2.285v4.966H217.413z"/>
			<path style="fill:#FFFFFF;" d="M219.932,471.744c0-2.051,1.465-3.706,3.486-3.706c2.139,0,3.398,1.67,3.398,3.794v0.279h-5.727
				c0.088,1.333,1.025,2.446,2.549,2.446c0.806,0,1.626-0.322,2.183-0.894l0.527,0.718c-0.703,0.703-1.655,1.084-2.812,1.084
				C221.441,475.465,219.932,473.956,219.932,471.744z M223.404,468.947c-1.509,0-2.256,1.274-2.314,2.358h4.643
				C225.718,470.25,225.015,468.947,223.404,468.947z"/>
			<path style="fill:#FFFFFF;" d="M233.35,475.289v-1.055c-0.527,0.718-1.392,1.23-2.388,1.23c-1.846,0-3.149-1.406-3.149-3.706
				c0-2.256,1.289-3.721,3.149-3.721c0.952,0,1.817,0.469,2.388,1.245v-3.765h1.098v9.77H233.35z M233.35,473.37v-3.208
				c-0.396-0.615-1.245-1.143-2.124-1.143c-1.421,0-2.27,1.172-2.27,2.739c0,1.567,0.849,2.724,2.27,2.724
				C232.105,474.483,232.954,473.986,233.35,473.37z"/>
			<path style="fill:#FFFFFF;" d="M239.692,475.289v-9.77h1.098v3.765c0.572-0.776,1.421-1.245,2.388-1.245
				c1.845,0,3.149,1.465,3.149,3.721c0,2.299-1.304,3.706-3.149,3.706c-0.996,0-1.86-0.513-2.388-1.23v1.055H239.692z
				 M242.9,474.483c1.436,0,2.285-1.157,2.285-2.724c0-1.568-0.85-2.739-2.285-2.739c-0.864,0-1.728,0.527-2.109,1.143v3.208
				C241.171,473.986,242.036,474.483,242.9,474.483z"/>
			<path style="fill:#FFFFFF;" d="M247.528,477.061c0.161,0.073,0.425,0.117,0.601,0.117c0.483,0,0.805-0.161,1.055-0.747
				l0.469-1.069l-2.959-7.148h1.187l2.358,5.8l2.344-5.8h1.201l-3.545,8.51c-0.425,1.025-1.143,1.421-2.08,1.435
				c-0.234,0-0.601-0.044-0.805-0.103L247.528,477.061z"/>
		</g>
	</g>
</g>
</svg>
